<?xml version="1.0" encoding="utf-8"?>
<svg version="1.1" id="Layer_1"
xmlns="http://www.w3.org/2000/svg"
xmlns:xlink="http://www.w3.org/1999/xlink"
xmlns:author="http://www.sothink.com"
width="108px" height="105px"
xml:space="preserve">
<g id="0" transform="matrix(1, 0, 0, 1, 53.3, 52.75)">
<radialGradient
id="RadialGradID_1" gradientUnits="userSpaceOnUse" gradientTransform="matrix(0.0643921, 0, 0, 0.0643921, 0.4, -0.35)" spreadMethod ="pad" cx="0" cy="0" r="819.2" fx="0" fy="0" >
<stop  offset="0.537255"  style="stop-color:#7E0303;stop-opacity:1" />
<stop  offset="1"  style="stop-color:#611012;stop-opacity:1" />
</radialGradient>
<path style="fill:url(#RadialGradID_1) " d="M37.5,-37.45Q52.8 -22.1 52.8 -0.35Q52.8 21.4 37.5 36.7Q22.2 52.05 0.4 52.05Q-21.35 52.05 -36.7 36.7Q-52 21.4 -52 -0.35Q-52 -22.1 -36.7 -37.45Q-21.35 -52.75 0.4 -52.75Q22.2 -52.75 37.5 -37.45" />
<path style="fill:none;stroke-width:8.25;stroke-linecap:round;stroke-linejoin:round;stroke-miterlimit:3;stroke:#810506;stroke-opacity:1" d="M-49.15,-3.3L49.8 -3.3" />
<path style="fill:none;stroke-width:8.25;stroke-linecap:round;stroke-linejoin:round;stroke-miterlimit:3;stroke:#810506;stroke-opacity:1" d="M-49.2,3L49.75 3" />
<path style="fill:none;stroke-width:2;stroke-linecap:round;stroke-linejoin:round;stroke-miterlimit:3;stroke:#EAB7B0;stroke-opacity:1" d="M-48.6,-8.2L-50.3 -8.2M-43.6,-8.2L-45.6 -8.2M-38.6,-8.2L-40.6 -8.2M-33.6,-8.2L-35.6 -8.2M-28.6,-8.2L-30.6 -8.2M-23.6,-8.2L-25.6 -8.2M-18.6,-8.2L-20.6 -8.2M-13.6,-8.2L-15.6 -8.2M-8.6,-8.2L-10.6 -8.2M-3.6,-8.2L-5.6 -8.2M1.4,-8.2L-0.6 -8.2M6.4,-8.2L4.4 -8.2M11.4,-8.2L9.4 -8.2M16.4,-8.2L14.4 -8.2M21.4,-8.2L19.4 -8.2M26.4,-8.2L24.4 -8.2M31.4,-8.2L29.4 -8.2M36.4,-8.2L34.4 -8.2M46.4,-8.2L44.4 -8.2M51.4,-8.2L49.4 -8.2M41.4,-8.2L39.4 -8.2" />
<path style="fill:none;stroke-width:2;stroke-linecap:round;stroke-linejoin:round;stroke-miterlimit:3;stroke:#EAB7B0;stroke-opacity:1" d="M-48.6,7.85L-50.3 7.85M-43.6,7.85L-45.6 7.85M-38.6,7.85L-40.6 7.85M-33.6,7.85L-35.6 7.85M-28.6,7.85L-30.6 7.85M-23.6,7.85L-25.6 7.85M-18.6,7.85L-20.6 7.85M-13.6,7.85L-15.6 7.85M-8.6,7.85L-10.6 7.85M-3.6,7.85L-5.6 7.85M1.4,7.85L-0.6 7.85M6.4,7.85L4.4 7.85M11.4,7.85L9.4 7.85M16.4,7.85L14.4 7.85M21.4,7.85L19.4 7.85M26.4,7.85L24.4 7.85M31.4,7.85L29.4 7.85M36.4,7.85L34.4 7.85M46.4,7.85L44.4 7.85M51.4,7.85L49.4 7.85M41.4,7.85L39.4 7.85" />
<path style="fill:none;stroke-width:0.75;stroke-linecap:round;stroke-linejoin:round;stroke-miterlimit:3;stroke:#000000;stroke-opacity:1" d="M53.1,-0.2L-52 -0.2" />
<path style="fill:none;stroke-width:2;stroke-linecap:round;stroke-linejoin:round;stroke-miterlimit:3;stroke:#EAB7B0;stroke-opacity:1" d="M-49.4,-14.2L-50.2 -14.2M-44.4,-14.2L-47.4 -14.2M-34.45,-14.2L-37.45 -14.2M-29.45,-14.2L-32.45 -14.2M-24.45,-14.2L-27.45 -14.2M-19.45,-14.2L-22.45 -14.2M-14.5,-14.2L-17.45 -14.2M-9.5,-14.2L-12.5 -14.2M-4.5,-14.2L-7.5 -14.2M5.5,-14.2L2.5 -14.2M10.45,-14.2L7.5 -14.2M15.45,-14.2L12.45 -14.2M20.45,-14.2L17.45 -14.2M25.45,-14.2L22.45 -14.2M30.45,-14.2L27.45 -14.2M35.4,-14.2L32.45 -14.2M0.5,-14.2L-2.5 -14.2M45.4,-14.2L42.4 -14.2M50.4,-14.2L47.4 -14.2M40.4,-14.2L37.4 -14.2M-39.45,-14.2L-42.4 -14.2" />
<path style="fill:none;stroke-width:2;stroke-linecap:round;stroke-linejoin:round;stroke-miterlimit:3;stroke:#EAB7B0;stroke-opacity:1" d="M-41.9,-20.1L-44.9 -20.1M-36.9,-20.1L-39.9 -20.1M-31.9,-20.1L-34.9 -20.1M-26.9,-20.1L-29.9 -20.1M-21.9,-20.1L-24.9 -20.1M-16.9,-20.1L-19.9 -20.1M-11.9,-20.1L-14.9 -20.1M-6.9,-20.1L-9.9 -20.1M-1.9,-20.1L-4.9 -20.1M3.1,-20.1L0.1 -20.1M8.1,-20.1L5.1 -20.1M13.1,-20.1L10.1 -20.1M18.1,-20.1L15.1 -20.1M23.1,-20.1L20.1 -20.1M28.1,-20.1L25.1 -20.1M33.1,-20.1L30.1 -20.1M38.1,-20.1L35.1 -20.1M43.1,-20.1L40.1 -20.1M48.1,-20.1L45.1 -20.1" />
<path style="fill:none;stroke-width:2;stroke-linecap:round;stroke-linejoin:round;stroke-miterlimit:3;stroke:#EAB7B0;stroke-opacity:1" d="M45.3,13.6L42.3 13.6M50.3,13.6L47.3 13.6M5.3,13.6L2.3 13.6M10.3,13.6L7.3 13.6M15.3,13.6L12.3 13.6M20.3,13.6L17.3 13.6M25.3,13.6L22.3 13.6M30.3,13.6L27.3 13.6M35.3,13.6L32.3 13.6M-34.7,13.6L-37.7 13.6M-29.7,13.6L-32.7 13.6M-24.7,13.6L-27.7 13.6M-19.7,13.6L-22.7 13.6M-14.7,13.6L-17.7 13.6M-9.7,13.6L-12.7 13.6M-4.7,13.6L-7.7 13.6M0.3,13.6L-2.7 13.6M40.3,13.6L37.3 13.6M-44.7,13.6L-47.7 13.6M-39.7,13.6L-42.7 13.6" />
<path style="fill:none;stroke-width:2;stroke-linecap:round;stroke-linejoin:round;stroke-miterlimit:3;stroke:#EAB7B0;stroke-opacity:1" d="M43.25,19.4L40.25 19.4M48.25,19.4L45.25 19.4M3.25,19.4L0.25 19.4M8.25,19.4L5.25 19.4M13.25,19.4L10.25 19.4M18.25,19.4L15.25 19.4M23.25,19.4L20.25 19.4M28.25,19.4L25.25 19.4M33.25,19.4L30.25 19.4M38.25,19.4L35.25 19.4M-36.75,19.4L-39.75 19.4M-31.75,19.4L-34.75 19.4M-26.75,19.4L-29.75 19.4M-21.75,19.4L-24.75 19.4M-16.75,19.4L-19.75 19.4M-11.75,19.4L-14.75 19.4M-6.75,19.4L-9.75 19.4M-1.75,19.4L-4.75 19.4M-46.75,19.4L-47.45 19.4M-41.75,19.4L-44.75 19.4" />
<path style="fill:#540401;fill-opacity:1" d="M-47.4,-3.2Q-46.85 -2.45 -47.7 -2.05Q-48.5 -1.65 -48.9 -2.45Q-49.3 -3.2 -48.65 -3.6Q-47.95 -3.95 -47.4 -3.2M-50.45,-1.9Q-50.9 -1.55 -51.2 -2.1Q-51.5 -2.65 -51 -2.95Q-50.55 -3.25 -50.25 -2.75Q-50 -2.25 -50.45 -1.9M-46.35,-3.1Q-45.6 -3.4 -45.25 -2.75Q-44.85 -2.15 -45.6 -1.85Q-46.3 -1.55 -46.7 -2.2Q-47.1 -2.8 -46.35 -3.1M-41.9,-3.3Q-41.25 -3.7 -40.9 -3Q-40.55 -2.3 -41.15 -1.85Q-41.75 -1.35 -42.15 -2.1Q-42.6 -2.85 -41.9 -3.3M-43,-1.8Q-43.8 -1.45 -44.1 -2.15Q-44.45 -2.8 -43.75 -3.15Q-43.05 -3.5 -42.65 -2.85Q-42.2 -2.15 -43 -1.8M-40,-2.15Q-40.35 -2.9 -39.75 -3.2Q-39.1 -3.55 -38.6 -2.85Q-38.1 -2.15 -38.85 -1.8Q-39.65 -1.45 -40 -2.15M-37.65,-2.15Q-38.15 -2.9 -37.25 -3.25Q-36.35 -3.6 -35.9 -2.85Q-35.5 -2.15 -36.3 -1.8Q-37.15 -1.45 -37.65 -2.15M-31.65,-1.7Q-32.5 -1.05 -33.05 -2.05Q-33.65 -3.1 -32.75 -3.65Q-31.85 -4.2 -31.35 -3.25Q-30.85 -2.35 -31.65 -1.7M-34.45,-2Q-35.25 -1.65 -35.55 -2.35Q-35.9 -3 -35.2 -3.35Q-34.5 -3.7 -34.1 -3.05Q-33.65 -2.35 -34.45 -2M-30.75,-2.1Q-31 -2.65 -30.55 -2.85Q-30.1 -3.1 -29.75 -2.6Q-29.35 -2.1 -29.9 -1.85Q-30.5 -1.6 -30.75 -2.1M-28.85,-2.1Q-29.15 -2.55 -28.6 -2.8Q-28.05 -3 -27.8 -2.55Q-27.5 -2.1 -28.05 -1.9Q-28.55 -1.65 -28.85 -2.1M-24.75,-2.45Q-24.3 -1.75 -25.1 -1.4Q-25.9 -1.05 -26.2 -1.75Q-26.55 -2.4 -25.85 -2.75Q-25.15 -3.1 -24.75 -2.45M-24.45,-1.7Q-24.85 -2.4 -24.2 -2.8Q-23.55 -3.2 -23.25 -2.55Q-22.9 -1.9 -23.45 -1.4Q-24.05 -0.95 -24.45 -1.7M-21.8,-3.25Q-21.15 -3.6 -20.65 -2.9Q-20.15 -2.2 -20.9 -1.85Q-21.7 -1.5 -22.05 -2.2Q-22.4 -2.95 -21.8 -3.25M-19.65,-2.4Q-20.05 -3.05 -19.3 -3.35Q-18.5 -3.65 -18.1 -3.05Q-17.75 -2.4 -18.45 -2.1Q-19.2 -1.75 -19.65 -2.4M-17.65,-2Q-18 -2.8 -17.15 -3.25Q-16.35 -3.65 -15.8 -2.85Q-15.25 -2 -16.25 -1.6Q-17.25 -1.2 -17.65 -2M-11.8,-1.2Q-12.7 -0.75 -13.15 -1.65Q-13.6 -2.5 -12.85 -2.95Q-12.1 -3.35 -11.45 -2.5Q-10.85 -1.65 -11.8 -1.2M-14.45,-2Q-15 -1.55 -15.4 -2.25Q-15.8 -2.95 -15.2 -3.3Q-14.6 -3.7 -14.25 -3.05Q-13.9 -2.45 -14.45 -2M-10.5,-2.2Q-10.85 -2.75 -10.2 -3Q-9.55 -3.25 -9.25 -2.75Q-8.9 -2.2 -9.55 -1.95Q-10.15 -1.7 -10.5 -2.2M-6.5,-2.6Q-6.5 -3.1 -6 -3.45Q-5.15 -3.95 -4.7 -3.1Q-4.2 -2.2 -5 -1.6Q-5.75 -1 -6.3 -1.95L-6.45 -2.2Q-6.45 -1.8 -7.1 -1.55Q-8.2 -1.1 -8.6 -1.95Q-9 -2.85 -8.1 -3.3Q-7.2 -3.75 -6.65 -2.85L-6.5 -2.6M-1.4,-3.6Q-0.65 -3.9 -0.3 -3.25Q0.1 -2.65 -0.65 -2.35Q-1.35 -2.05 -1.75 -2.7Q-2.15 -3.3 -1.4 -3.6M-2.6,-1.65Q-3.4 -1.3 -3.75 -2Q-4.1 -2.75 -3.5 -3.05Q-2.85 -3.4 -2.35 -2.7Q-1.85 -2 -2.6 -1.65M0.85,-2.95Q1.45 -3.25 1.8 -2.7Q2.2 -2.1 1.5 -1.8Q0.8 -1.5 0.55 -2.1Q0.25 -2.65 0.85 -2.95M3.85,-1.8Q3.25 -1.35 2.85 -2.1Q2.45 -2.8 3.1 -3.2Q3.75 -3.6 4.05 -2.95Q4.4 -2.3 3.85 -1.8M8.2,-2.1Q7.55 -1.8 7.15 -2.4Q6.75 -3 7.45 -3.25Q8.15 -3.55 8.5 -2.95Q8.9 -2.4 8.2 -2.1M6,-2.35Q5.5 -2.1 5.25 -2.55Q5 -3.05 5.4 -3.3Q5.85 -3.5 6.2 -3.05Q6.55 -2.55 6 -2.35M9.45,-1.85Q9.15 -2.5 9.8 -2.8Q10.45 -3.15 10.9 -2.5Q11.3 -1.85 10.55 -1.55Q9.75 -1.2 9.45 -1.85M12,-2.1Q11.6 -2.8 12.25 -3.2Q12.9 -3.6 13.2 -2.95Q13.55 -2.3 13 -1.8Q12.4 -1.35 12 -2.1M13.95,-3.15Q14.7 -3.55 15.35 -2.7Q15.95 -1.85 15 -1.4Q14.1 -0.95 13.65 -1.85Q13.2 -2.7 13.95 -3.15M15.9,-2.1Q15.35 -2.85 16.3 -3.25Q17.2 -3.6 17.65 -2.85Q18.1 -2.1 17.25 -1.7Q16.4 -1.35 15.9 -2.1M18.2,-2.2Q17.9 -2.8 18.55 -3.15Q19.15 -3.45 19.55 -2.85Q19.95 -2.25 19.2 -1.95Q18.5 -1.6 18.2 -2.2M24.4,-3.1L24.45 -3.05L24.95 -3.45Q25.85 -3.8 26.3 -3.05Q26.7 -2.35 25.9 -2Q25.05 -1.65 24.55 -2.35L24.4 -2.6L24.25 -2.5Q23.85 -2.35 23.65 -2.7Q23.45 -3.1 23.8 -3.3L24.4 -3.1M20.75,-2.1Q20.3 -2.85 21 -3.3Q21.65 -3.7 22 -3Q22.35 -2.3 21.75 -1.85Q21.15 -1.35 20.75 -2.1M28.45,-1.7Q27.65 -1.35 27.35 -2Q27.05 -2.65 27.7 -2.95Q28.35 -3.3 28.8 -2.65Q29.2 -2 28.45 -1.7M31.4,-3.15Q31.9 -2.25 31.1 -1.65Q30.35 -1.05 29.8 -2Q29.25 -2.95 30.1 -3.5Q30.95 -4 31.4 -3.15M33.3,-1.6Q32.4 -1.15 31.95 -2Q31.55 -2.85 32.3 -3.25Q32.9 -3.6 33.4 -3.05L33.9 -3.4Q34.9 -3.8 35.35 -3Q35.8 -2.2 34.9 -1.85L33.75 -1.95L33.3 -1.6M38.9,-3.05Q39.45 -3.4 39.75 -2.8Q40.1 -2.2 39.55 -1.8Q39.05 -1.35 38.7 -2Q38.3 -2.65 38.9 -3.05M37.55,-2.25Q36.75 -1.9 36.45 -2.6Q36.1 -3.25 36.8 -3.6Q37.5 -3.95 37.9 -3.3Q38.35 -2.6 37.55 -2.25M41.4,-2.7Q41.15 -3.15 41.55 -3.35Q41.95 -3.55 42.25 -3.1Q42.6 -2.7 42.1 -2.45Q41.6 -2.25 41.4 -2.7M43.15,-2.2Q42.8 -2.75 43.45 -3.05Q44.15 -3.3 44.5 -2.75Q44.85 -2.2 44.2 -1.9Q43.55 -1.65 43.15 -2.2M49,-1.45Q48.2 -0.85 47.65 -1.8Q47.1 -2.8 48 -3.35Q48.85 -3.9 49.35 -3Q49.85 -2.1 49 -1.45M46.55,-1.85Q45.85 -1.5 45.55 -2.1Q45.25 -2.7 45.9 -3.05Q46.5 -3.35 46.9 -2.75Q47.3 -2.15 46.55 -1.85M50.1,-2.15Q49.85 -2.7 50.35 -2.95Q50.8 -3.2 51.2 -2.65Q51.6 -2.15 51 -1.85Q50.4 -1.6 50.1 -2.15M52.35,-2.15Q51.95 -2.75 52.7 -3.05Q53.45 -3.35 53.8 -2.7Q54.2 -2.1 53.45 -1.8Q52.75 -1.5 52.35 -2.15" />
<path style="fill:#540401;fill-opacity:1" d="M-47.3,2.3Q-46.75 3.05 -47.6 3.45Q-48.4 3.85 -48.8 3.05Q-49.2 2.3 -48.55 1.9Q-47.85 1.55 -47.3 2.3M-50.35,3.6Q-50.8 3.95 -51.1 3.4Q-51.4 2.85 -50.9 2.55Q-50.45 2.25 -50.15 2.75Q-49.9 3.25 -50.35 3.6M-46.25,2.4Q-45.5 2.1 -45.15 2.75Q-44.75 3.35 -45.5 3.65Q-46.2 3.95 -46.6 3.3Q-47 2.7 -46.25 2.4M-41.8,2.2Q-41.15 1.8 -40.8 2.5Q-40.45 3.2 -41.05 3.65Q-41.65 4.15 -42.05 3.4Q-42.5 2.65 -41.8 2.2M-42.9,3.7Q-43.7 4.05 -44 3.35Q-44.35 2.7 -43.65 2.35Q-42.95 2 -42.55 2.65Q-42.1 3.35 -42.9 3.7M-39.9,3.35Q-40.25 2.6 -39.65 2.3Q-39 1.95 -38.5 2.65Q-38 3.35 -38.75 3.7Q-39.55 4.05 -39.9 3.35M-37.55,3.35Q-38.05 2.6 -37.15 2.25Q-36.25 1.9 -35.8 2.65Q-35.4 3.35 -36.2 3.7Q-37.05 4.05 -37.55 3.35M-31.55,3.8Q-32.4 4.45 -32.95 3.45Q-33.55 2.4 -32.65 1.85Q-31.75 1.3 -31.25 2.25Q-30.75 3.15 -31.55 3.8M-34.35,3.5Q-35.15 3.85 -35.45 3.15Q-35.8 2.5 -35.1 2.15Q-34.4 1.8 -34 2.45Q-33.55 3.15 -34.35 3.5M-30.65,3.4Q-30.9 2.85 -30.45 2.65Q-30 2.4 -29.65 2.9Q-29.25 3.4 -29.8 3.65Q-30.4 3.9 -30.65 3.4M-28.75,3.4Q-29.05 2.95 -28.5 2.7Q-27.95 2.5 -27.7 2.95Q-27.4 3.4 -27.95 3.6Q-28.45 3.85 -28.75 3.4M-24.65,3.05Q-24.2 3.75 -25 4.1Q-25.8 4.45 -26.1 3.75Q-26.45 3.1 -25.75 2.75Q-25.05 2.4 -24.65 3.05M-24.35,3.8Q-24.75 3.1 -24.1 2.7Q-23.45 2.3 -23.15 2.95Q-22.8 3.6 -23.35 4.1Q-23.95 4.55 -24.35 3.8M-21.7,2.25Q-21.05 1.9 -20.55 2.6Q-20.05 3.3 -20.8 3.65Q-21.6 4 -21.95 3.3Q-22.3 2.55 -21.7 2.25M-19.55,3.1Q-19.95 2.45 -19.2 2.15Q-18.4 1.85 -18 2.45Q-17.65 3.1 -18.35 3.4Q-19.1 3.75 -19.55 3.1M-17.55,3.5Q-17.9 2.7 -17.05 2.25Q-16.25 1.85 -15.7 2.65Q-15.15 3.5 -16.15 3.9Q-17.15 4.3 -17.55 3.5M-11.7,4.3Q-12.6 4.75 -13.05 3.85Q-13.5 3 -12.75 2.55Q-12 2.15 -11.35 3Q-10.75 3.85 -11.7 4.3M-14.35,3.5Q-14.9 3.95 -15.3 3.25Q-15.7 2.55 -15.1 2.2Q-14.5 1.8 -14.15 2.45Q-13.8 3.05 -14.35 3.5M-10.4,3.3Q-10.75 2.75 -10.1 2.5Q-9.45 2.25 -9.15 2.75Q-8.8 3.3 -9.45 3.55Q-10.05 3.8 -10.4 3.3M-6.4,2.9Q-6.4 2.4 -5.9 2.05Q-5.05 1.55 -4.6 2.4Q-4.1 3.3 -4.9 3.9Q-5.65 4.5 -6.2 3.55L-6.35 3.3Q-6.35 3.7 -7 3.95Q-8.1 4.4 -8.5 3.55Q-8.9 2.65 -8 2.2Q-7.1 1.75 -6.55 2.65L-6.4 2.9M-1.3,1.9Q-0.55 1.6 -0.2 2.25Q0.2 2.85 -0.55 3.15Q-1.25 3.45 -1.65 2.8Q-2.05 2.2 -1.3 1.9M-2.5,3.85Q-3.3 4.2 -3.65 3.5Q-4 2.75 -3.4 2.45Q-2.75 2.1 -2.25 2.8Q-1.75 3.5 -2.5 3.85M0.95,2.55Q1.55 2.25 1.9 2.8Q2.3 3.4 1.6 3.7Q0.9 4 0.65 3.4Q0.35 2.85 0.95 2.55M3.95,3.7Q3.35 4.15 2.95 3.4Q2.55 2.7 3.2 2.3Q3.85 1.9 4.15 2.55Q4.5 3.2 3.95 3.7M8.3,3.4Q7.65 3.7 7.25 3.1Q6.85 2.5 7.55 2.25Q8.25 1.95 8.6 2.55Q9 3.1 8.3 3.4M6.1,3.15Q5.6 3.4 5.35 2.95Q5.1 2.45 5.5 2.2Q5.95 2 6.3 2.45Q6.65 2.95 6.1 3.15M9.55,3.65Q9.25 3 9.9 2.7Q10.55 2.35 11 3Q11.4 3.65 10.65 3.95Q9.85 4.3 9.55 3.65M12.1,3.4Q11.7 2.7 12.35 2.3Q13 1.9 13.3 2.55Q13.65 3.2 13.1 3.7Q12.5 4.15 12.1 3.4M14.05,2.35Q14.8 1.95 15.45 2.8Q16.05 3.65 15.1 4.1Q14.2 4.55 13.75 3.65Q13.3 2.8 14.05 2.35M16,3.4Q15.45 2.65 16.4 2.25Q17.3 1.9 17.75 2.65Q18.2 3.4 17.35 3.8Q16.5 4.15 16 3.4M18.3,3.3Q18 2.7 18.65 2.35Q19.25 2.05 19.65 2.65Q20.05 3.25 19.3 3.55Q18.6 3.9 18.3 3.3M24.5,2.4L24.55 2.45Q24.65 2.2 25.05 2.05Q25.95 1.7 26.4 2.45Q26.8 3.15 26 3.5Q25.15 3.85 24.65 3.15L24.5 2.9L24.35 3Q23.95 3.15 23.75 2.8Q23.55 2.4 23.9 2.2Q24.25 2.05 24.5 2.4M20.85,3.4Q20.4 2.65 21.1 2.2Q21.75 1.8 22.1 2.5Q22.45 3.2 21.85 3.65Q21.25 4.15 20.85 3.4M28.55,3.8Q27.75 4.15 27.45 3.5Q27.15 2.85 27.8 2.55Q28.45 2.2 28.9 2.85Q29.3 3.5 28.55 3.8M31.5,2.35Q32 3.25 31.2 3.85Q30.45 4.45 29.9 3.5Q29.35 2.55 30.2 2Q31.05 1.5 31.5 2.35M33.4,3.9Q32.5 4.35 32.05 3.5Q31.65 2.65 32.4 2.25Q33 1.9 33.5 2.45L34 2.1Q35 1.7 35.45 2.5Q35.9 3.3 35 3.65L33.85 3.55L33.4 3.9M39,2.45Q39.55 2.1 39.85 2.7Q40.2 3.3 39.65 3.7Q39.15 4.15 38.8 3.5Q38.4 2.85 39 2.45M37.65,3.25Q36.85 3.6 36.55 2.9Q36.2 2.25 36.9 1.9Q37.6 1.55 38 2.2Q38.45 2.9 37.65 3.25M41.5,2.8Q41.25 2.35 41.65 2.15Q42.05 1.95 42.35 2.4Q42.7 2.8 42.2 3.05Q41.7 3.25 41.5 2.8M43.25,3.3Q42.9 2.75 43.55 2.45Q44.25 2.2 44.6 2.75Q44.95 3.3 44.3 3.6Q43.65 3.85 43.25 3.3M49.1,4.05Q48.3 4.65 47.75 3.7Q47.2 2.7 48.1 2.15Q48.95 1.6 49.45 2.5Q49.95 3.4 49.1 4.05M46.65,3.65Q45.95 4 45.65 3.4Q45.35 2.8 46 2.45Q46.6 2.15 47 2.75Q47.4 3.35 46.65 3.65M50.2,3.35Q49.95 2.8 50.45 2.55Q50.9 2.3 51.3 2.85Q51.7 3.35 51.1 3.65Q50.5 3.9 50.2 3.35M52.45,3.35Q52.05 2.75 52.8 2.45Q53.55 2.15 53.9 2.8Q54.3 3.4 53.55 3.7Q52.85 4 52.45 3.35" />
<path style="fill:none;stroke-width:2;stroke-linecap:round;stroke-linejoin:round;stroke-miterlimit:3;stroke:#540401;stroke-opacity:1" d="M-48.95,-5.5L-50.95 -5.5M-43.95,-5.5L-45.95 -5.5M-33.95,-5.5L-35.95 -5.5M-28.95,-5.5L-30.95 -5.5M-23.95,-5.5L-25.95 -5.5M-18.95,-5.5L-20.95 -5.5M-13.95,-5.5L-15.95 -5.5M-8.95,-5.5L-10.95 -5.5M-3.95,-5.5L-5.95 -5.5M6.05,-5.5L4.05 -5.5M11.05,-5.5L9.05 -5.5M16.05,-5.5L14.05 -5.5M21.05,-5.5L19.05 -5.5M26.05,-5.5L24.05 -5.5M31.05,-5.5L29.05 -5.5M36.05,-5.5L34.05 -5.5M1.05,-5.5L-0.95 -5.5M46.05,-5.5L44.05 -5.5M51.05,-5.5L49.05 -5.5M41.05,-5.5L39.05 -5.5M-38.95,-5.5L-40.95 -5.5" />
<path style="fill:none;stroke-width:2;stroke-linecap:round;stroke-linejoin:round;stroke-miterlimit:3;stroke:#540401;stroke-opacity:1" d="M-48.45,5.7L-50.45 5.7M-43.45,5.7L-45.45 5.7M-38.45,5.7L-40.45 5.7M-33.45,5.7L-35.45 5.7M-28.45,5.7L-30.45 5.7M-23.45,5.7L-25.45 5.7M-18.45,5.7L-20.45 5.7M-13.45,5.7L-15.45 5.7M-8.45,5.7L-10.45 5.7M-3.45,5.7L-5.45 5.7M1.55,5.7L-0.45 5.7M6.55,5.7L4.55 5.7M11.55,5.7L9.55 5.7M16.55,5.7L14.55 5.7M21.55,5.7L19.55 5.7M26.55,5.7L24.55 5.7M31.55,5.7L29.55 5.7M36.55,5.7L34.55 5.7M46.55,5.7L44.55 5.7M51.55,5.7L49.55 5.7M41.55,5.7L39.55 5.7" />
</g>
</svg>
