<?xml version="1.0" encoding="utf-8"?>
<svg version="1.1" id="Layer_1"
xmlns="http://www.w3.org/2000/svg"
xmlns:xlink="http://www.w3.org/1999/xlink"
xmlns:author="http://www.sothink.com"
width="24px" height="178px"
xml:space="preserve">
<g id="14" transform="matrix(1, 0, 0, 1, 0, 0)">
<linearGradient
id="LinearGradID_18" gradientUnits="userSpaceOnUse" gradientTransform="matrix(0.00634766, 0, 0, -0.00634766, 5.25, 27.4)" spreadMethod ="pad" x1="-819.2" y1="0" x2="819.2" y2="0" >
<stop  offset="0" style="stop-color:#E2B000;stop-opacity:1" />
<stop  offset="1" style="stop-color:#AC7500;stop-opacity:1" />
</linearGradient>
<path style="fill:url(#LinearGradID_18) " d="M10.05,20.3Q11 30.85 10.05 50.8Q7.5 48.35 6.05 48.8Q4.5 49.3 3.15 50.85Q1.65 52.45 0.8 54.8L0.05 54.8L1.25 48.1Q2.35 40.5 2.05 35.8Q1.05 20.8 1.05 12.8L0.85 6.75Q0.75 3.85 1.05 1.8Q1.35 -0.4 3.6 0.1L8.05 1.8Q9.85 2.4 9.9 8.65L10.05 20.3" />
<linearGradient
id="LinearGradID_19" gradientUnits="userSpaceOnUse" gradientTransform="matrix(0.00224304, 0.0829773, 0.0829773, -0.00224304, 15.7, 126)" spreadMethod ="pad" x1="-819.2" y1="0" x2="819.2" y2="0" >
<stop  offset="0" style="stop-color:#F5E3C2;stop-opacity:1" />
<stop  offset="1" style="stop-color:#AC7500;stop-opacity:1" />
</linearGradient>
<path style="fill:url(#LinearGradID_19) " d="M14.75,70.6Q15.1 87 16.05 97.3Q17.2 110 19.75 131.8Q22.3 154 23.05 157.3Q23.85 160.8 22.7 165.45Q21.45 170.3 18.55 174.3Q15.9 177.95 14 177.85Q13.05 177.8 10.55 175.8L13.35 174.05Q16.5 171.55 18.05 167.8Q19.9 163.3 20 159.7Q20.05 156.1 18.55 143.3Q16.2 123.45 14.3 98.05Q11.75 64.1 13.05 54.3L14.55 56.3L14.75 70.6" />
<linearGradient
id="LinearGradID_20" gradientUnits="userSpaceOnUse" gradientTransform="matrix(0.012146, 0, 0, -0.012146, 9.95, 112.3)" spreadMethod ="pad" x1="-819.2" y1="0" x2="819.2" y2="0" >
<stop  offset="0" style="stop-color:#F5AA5E;stop-opacity:1" />
<stop  offset="1" style="stop-color:#F5E3C2;stop-opacity:1" />
</linearGradient>
<path style="fill:url(#LinearGradID_20) " d="M10.05,50.8L13.05 54.3Q11.75 64.1 14.3 98.05Q16.2 123.45 18.55 143.3Q20.05 156.1 20 159.7Q19.9 163.3 18.05 167.8Q16.5 171.55 13.35 174.05L10.55 175.8Q8.75 174.35 6.45 161.8Q4.2 149.7 3.05 135.8Q2.1 124.55 1 91.8L0.05 61.3Q-0.2 57.95 0.8 54.8Q1.65 52.45 3.15 50.85Q4.5 49.3 6.05 48.8Q7.5 48.35 10.05 50.8" />
</g>
</svg>
