<?xml version="1.0" encoding="utf-8"?>
<svg version="1.1" id="Layer_1"
xmlns="http://www.w3.org/2000/svg"
xmlns:xlink="http://www.w3.org/1999/xlink"
xmlns:author="http://www.sothink.com"
width="10px" height="10px"
xml:space="preserve">
<g id="10" transform="matrix(1, 0, 0, 1, 4.7, 4.65)">
<linearGradient
id="LinearGradID_4" gradientUnits="userSpaceOnUse" gradientTransform="matrix(0.00291443, -0.00343323, -0.00343323, -0.00291443, 1.9, -2.15)" spreadMethod ="pad" x1="-819.2" y1="0" x2="819.2" y2="0" >
<stop  offset="0" style="stop-color:#F5AA5E;stop-opacity:1" />
<stop  offset="1" style="stop-color:#F5E3C2;stop-opacity:1" />
</linearGradient>
<path style="fill:url(#LinearGradID_4) " d="M4.7,0.05Q4.7 2 3.35 3.4Q1.95 4.8 0 4.8Q-1.95 4.8 -3.3 3.4Q-4.7 2 -4.7 0.05Q-4.7 -1.9 -3.3 -3.25Q-1.95 -4.65 0 -4.65Q1.95 -4.65 3.35 -3.25Q4.7 -1.9 4.7 0.05" />
<linearGradient
id="LinearGradID_5" gradientUnits="userSpaceOnUse" gradientTransform="matrix(0.00198364, -0.00247192, -0.00247192, -0.00198364, 1.2, -1.4)" spreadMethod ="pad" x1="-819.2" y1="0" x2="819.2" y2="0" >
<stop  offset="0" style="stop-color:#F5AA5E;stop-opacity:1" />
<stop  offset="1" style="stop-color:#F5E3C2;stop-opacity:1" />
</linearGradient>
<path style="fill:url(#LinearGradID_5) " d="M3.95,0.05Q3.95 1.7 2.8 2.85Q1.65 4 0 4Q-1.6 4 -2.8 2.85Q-3.95 1.7 -3.95 0.05Q-3.95 -1.55 -2.8 -2.75Q-1.6 -3.9 0 -3.9Q1.65 -3.9 2.8 -2.75Q3.95 -1.55 3.95 0.05" />
<linearGradient
id="LinearGradID_6" gradientUnits="userSpaceOnUse" gradientTransform="matrix(0.00123596, -0.00100708, -0.00100708, -0.00123596, 0.9, -0.7)" spreadMethod ="pad" x1="-819.2" y1="0" x2="819.2" y2="0" >
<stop  offset="0" style="stop-color:#F5AA5E;stop-opacity:1" />
<stop  offset="1" style="stop-color:#F5E3C2;stop-opacity:1" />
</linearGradient>
<path style="fill:url(#LinearGradID_6) " d="M3,0.05Q3 1.3 2.1 2.15Q1.25 3.05 0 3.05Q-1.25 3.05 -2.1 2.15Q-3 1.3 -3 0.05Q-3 -1.2 -2.1 -2.05Q-1.25 -2.95 0 -2.95Q1.25 -2.95 2.1 -2.05Q3 -1.2 3 0.05" />
</g>
</svg>
